<?xml version="1.0" encoding="UTF-8"?>
<svg xmlns="http://www.w3.org/2000/svg" version="1.1" viewBox="0 0 283.5 283.5">
  <defs>
    <style>
      .cls-1 {
        fill: #fff;
      }
    </style>
  </defs>
  <!-- Generator: Adobe Illustrator 28.7.1, SVG Export Plug-In . SVG Version: 1.2.0 Build 142)  -->
  <g>
    <g id="Layer_1">
      <path class="cls-1" d="M152,110.8c-11.4,0-20.6,9.2-20.6,20.6v20.6h20.6v-10.3c0-5.7,4.6-10.3,10.3-10.3s10.3,4.6,10.3,10.3v-10.3c0-11.4-9.2-20.6-20.6-20.6ZM214,110.8c-11.4,0-20.6,9.2-20.6,20.6v20.6h20.6v-10.3c0-5.7,4.6-10.3,10.3-10.3s10.3,4.6,10.3,10.3v-10.3c0-11.4-9.2-20.6-20.6-20.6ZM214,110.8c-11.4,0-20.6,9.2-20.6,20.6v20.6h20.6v-10.3c0-5.7,4.6-10.3,10.3-10.3s10.3,4.6,10.3,10.3v-10.3c0-11.4-9.2-20.6-20.6-20.6ZM152,110.8c-11.4,0-20.6,9.2-20.6,20.6v20.6h20.6v-10.3c0-5.7,4.6-10.3,10.3-10.3s10.3,4.6,10.3,10.3v-10.3c0-11.4-9.2-20.6-20.6-20.6ZM152,110.8c-11.4,0-20.6,9.2-20.6,20.6v20.6h20.6v-10.3c0-5.7,4.6-10.3,10.3-10.3s10.3,4.6,10.3,10.3v-10.3c0-11.4-9.2-20.6-20.6-20.6ZM214,110.8c-11.4,0-20.6,9.2-20.6,20.6v20.6h20.6v-10.3c0-5.7,4.6-10.3,10.3-10.3s10.3,4.6,10.3,10.3v-10.3c0-11.4-9.2-20.6-20.6-20.6ZM214,110.8c-11.4,0-20.6,9.2-20.6,20.6v20.6h20.6v-10.3c0-5.7,4.6-10.3,10.3-10.3s10.3,4.6,10.3,10.3v-10.3c0-11.4-9.2-20.6-20.6-20.6ZM152,110.8c-11.4,0-20.6,9.2-20.6,20.6v20.6h20.6v-10.3c0-5.7,4.6-10.3,10.3-10.3s10.3,4.6,10.3,10.3v-10.3c0-11.4-9.2-20.6-20.6-20.6ZM152,110.8c-11.4,0-20.6,9.2-20.6,20.6v20.6h20.6v-10.3c0-5.7,4.6-10.3,10.3-10.3s10.3,4.6,10.3,10.3v-10.3c0-11.4-9.2-20.6-20.6-20.6ZM214,110.8c-11.4,0-20.6,9.2-20.6,20.6v20.6h20.6v-10.3c0-5.7,4.6-10.3,10.3-10.3s10.3,4.6,10.3,10.3v-10.3c0-11.4-9.2-20.6-20.6-20.6ZM214,110.8c-11.4,0-20.6,9.2-20.6,20.6v20.6h20.6v-10.3c0-5.7,4.6-10.3,10.3-10.3s10.3,4.6,10.3,10.3v-10.3c0-11.4-9.2-20.6-20.6-20.6ZM152,110.8c-11.4,0-20.6,9.2-20.6,20.6v20.6h20.6v-10.3c0-5.7,4.6-10.3,10.3-10.3s10.3,4.6,10.3,10.3v-10.3c0-11.4-9.2-20.6-20.6-20.6ZM269.3,57.3c0-23.8-19.4-43.1-43.1-43.1h-12.2c-3.9,0-7.6,1.6-10.2,4.4-5.9-2.9-12.3-4.4-18.9-4.4h-12.2c-7.8,0-14.1,6.3-14.1,14.1v20.6c0,2.4.6,4.6,1.6,6.6h-37c1-2,1.6-4.2,1.6-6.6v-20.6c0-7.8-6.3-14.1-14.1-14.1h-12.2c-6.6,0-13,1.5-18.9,4.4-2.6-2.8-6.3-4.4-10.2-4.4h-12.2c-23.8,0-43.1,19.4-43.1,43.1v32.8c0,4.1,1.7,7.7,4.5,10.3-2.8,2.6-4.5,6.2-4.5,10.3v41.3c0,11,5.2,20.9,13.2,27.2-7.4.4-13.2,6.6-13.2,14v20.6c0,4.1,1.7,7.7,4.5,10.3-2.8,2.6-4.5,6.2-4.5,10.3v20.6c0,7.8,6.3,14.1,14.1,14.1h41.3c4.1,0,7.7-1.7,10.3-4.5,2.6,2.8,6.2,4.5,10.3,4.5h165.1c7.8,0,14.1-6.3,14.1-14.1v-20.6c0-4.1-1.7-7.7-4.5-10.3,2.8-2.6,4.5-6.2,4.5-10.3v-20.6c0-7.5-5.9-13.6-13.2-14,8-6.4,13.2-16.2,13.2-27.2v-41.3c0-4.1-1.7-7.7-4.5-10.3,2.8-2.6,4.5-6.2,4.5-10.3v-32.8ZM69.5,255.2H28.2v-20.6h41.3v20.6ZM28.2,214v-20.6h165.1v20.6H28.2ZM255.2,255.2H90.1v-20.6h165.1v20.6ZM255.2,214h-41.3v-20.6h41.3v20.6ZM255.2,90.1h-20.6v20.6h20.6v41.3c0,11.4-9.2,20.6-20.6,20.6H48.9c-11.4,0-20.6-9.2-20.6-20.6v-41.3h20.6v-20.6h-20.6v-32.8c0-16.1,13-29.1,29.1-29.1h12.2v20.6h-12.2c-4.7,0-8.4,3.8-8.4,8.4v32.8h41.3v-20.6h-20.6v-12.2c0-16.1,13-29.1,29.1-29.1h12.2v20.6h-12.2c-4.7,0-8.4,3.8-8.4,8.4v12.2h103.2v-12.2c0-4.7-3.8-8.4-8.4-8.4h-12.2v-20.6h12.2c16.1,0,29.1,13,29.1,29.1v12.2h-20.6v20.6h41.3v-32.8c0-4.7-3.8-8.4-8.4-8.4h-12.2v-20.6h12.2c16.1,0,29.1,13,29.1,29.1v32.8ZM193.3,152h20.6v-10.3c0-5.7,4.6-10.3,10.3-10.3s10.3,4.6,10.3,10.3v-10.3c0-11.4-9.2-20.6-20.6-20.6s-20.6,9.2-20.6,20.6v20.6ZM152,110.8c-11.4,0-20.6,9.2-20.6,20.6v20.6h20.6v-10.3c0-5.7,4.6-10.3,10.3-10.3s10.3,4.6,10.3,10.3v-10.3c0-11.4-9.2-20.6-20.6-20.6ZM152,110.8c-11.4,0-20.6,9.2-20.6,20.6v20.6h20.6v-10.3c0-5.7,4.6-10.3,10.3-10.3s10.3,4.6,10.3,10.3v-10.3c0-11.4-9.2-20.6-20.6-20.6ZM214,110.8c-11.4,0-20.6,9.2-20.6,20.6v20.6h20.6v-10.3c0-5.7,4.6-10.3,10.3-10.3s10.3,4.6,10.3,10.3v-10.3c0-11.4-9.2-20.6-20.6-20.6ZM214,110.8c-11.4,0-20.6,9.2-20.6,20.6v20.6h20.6v-10.3c0-5.7,4.6-10.3,10.3-10.3s10.3,4.6,10.3,10.3v-10.3c0-11.4-9.2-20.6-20.6-20.6ZM152,110.8c-11.4,0-20.6,9.2-20.6,20.6v20.6h20.6v-10.3c0-5.7,4.6-10.3,10.3-10.3s10.3,4.6,10.3,10.3v-10.3c0-11.4-9.2-20.6-20.6-20.6ZM152,110.8c-11.4,0-20.6,9.2-20.6,20.6v20.6h20.6v-10.3c0-5.7,4.6-10.3,10.3-10.3s10.3,4.6,10.3,10.3v-10.3c0-11.4-9.2-20.6-20.6-20.6ZM214,110.8c-11.4,0-20.6,9.2-20.6,20.6v20.6h20.6v-10.3c0-5.7,4.6-10.3,10.3-10.3s10.3,4.6,10.3,10.3v-10.3c0-11.4-9.2-20.6-20.6-20.6ZM214,110.8c-11.4,0-20.6,9.2-20.6,20.6v20.6h20.6v-10.3c0-5.7,4.6-10.3,10.3-10.3s10.3,4.6,10.3,10.3v-10.3c0-11.4-9.2-20.6-20.6-20.6ZM152,110.8c-11.4,0-20.6,9.2-20.6,20.6v20.6h20.6v-10.3c0-5.7,4.6-10.3,10.3-10.3s10.3,4.6,10.3,10.3v-10.3c0-11.4-9.2-20.6-20.6-20.6ZM152,110.8c-11.4,0-20.6,9.2-20.6,20.6v20.6h20.6v-10.3c0-5.7,4.6-10.3,10.3-10.3s10.3,4.6,10.3,10.3v-10.3c0-11.4-9.2-20.6-20.6-20.6ZM214,110.8c-11.4,0-20.6,9.2-20.6,20.6v20.6h20.6v-10.3c0-5.7,4.6-10.3,10.3-10.3s10.3,4.6,10.3,10.3v-10.3c0-11.4-9.2-20.6-20.6-20.6ZM214,110.8c-11.4,0-20.6,9.2-20.6,20.6v20.6h20.6v-10.3c0-5.7,4.6-10.3,10.3-10.3s10.3,4.6,10.3,10.3v-10.3c0-11.4-9.2-20.6-20.6-20.6ZM152,110.8c-11.4,0-20.6,9.2-20.6,20.6v20.6h20.6v-10.3c0-5.7,4.6-10.3,10.3-10.3s10.3,4.6,10.3,10.3v-10.3c0-11.4-9.2-20.6-20.6-20.6Z"/>
    </g>
  </g>
</svg>
