<?xml version="1.0" encoding="UTF-8"?>
<svg xmlns="http://www.w3.org/2000/svg" version="1.1" viewBox="0 0 1113 283.5">
    <path fill="#fff" d="M462.9,234.2l-12.1-48.8h-54.4l-12.1,48.8h-24.7l48.2-185h31.6l47.9,185h-24.4ZM445.7,164.8l-13.8-55.6c-2.7-10.7-4.8-19.7-6.3-26.9-.9-4.2-1.5-7.5-2-9.9-.5,2.5-1.2,5.8-2,9.9-1.5,7.1-3.6,16.1-6.3,26.7l-13.8,55.9h44.3Z"/>
    <path fill="#fff" d="M596.1,234.2l-29.9-45.6c-1.2-1.9-2.4-4.1-3.5-6.5-.8-1.7-1.5-3.3-2.1-4.5-.6,1.3-1.4,2.8-2.3,4.5-1.3,2.4-2.6,4.6-4,6.5l-29.9,45.6h-28.5l49.5-71.9-46.5-67.9h28.5l27.6,43.1c1.2,1.9,2.3,3.9,3.4,6.1.7,1.4,1.3,2.7,1.9,3.8.5-1.1,1.1-2.4,1.8-3.8,1.1-2.2,2.2-4.2,3.4-6.1l27.6-43.1h28.5l-46.5,68.1,49.3,71.6h-28.5Z"/>
    <path fill="#fff" d="M686.4,236.2c-16.7,0-30.2-5-40.1-14.8-9.9-9.8-14.9-23.7-14.9-41.3v-31.7c0-17.7,5-31.6,14.8-41.4,9.8-9.7,23.4-14.7,40.2-14.7s30.4,4.9,40.2,14.7c9.8,9.7,14.8,23.7,14.8,41.4v31.7c0,17.6-5,31.4-14.9,41.3-9.9,9.8-23.4,14.8-40.1,14.8ZM686.4,114.1c-9.5,0-17.1,2.7-22.6,8.1-5.5,5.4-8.3,13.4-8.3,23.8v36.7c0,10.5,2.8,18.5,8.3,23.8,5.5,5.4,13.1,8.1,22.6,8.1s17.3-2.7,22.7-8.1c5.4-5.4,8.2-13.4,8.2-23.8v-36.7c0-10.5-2.8-18.5-8.2-23.8-5.4-5.4-13.1-8.1-22.7-8.1Z"/>
    <path fill="#fff" d="M888.3,236.2c-16.7,0-30.2-5-40.1-14.8-9.9-9.8-14.9-23.7-14.9-41.3v-31.7c0-17.7,5-31.6,14.8-41.4,9.8-9.7,23.4-14.7,40.2-14.7s30.4,4.9,40.2,14.7c9.8,9.7,14.8,23.7,14.8,41.4v31.7c0,17.6-5,31.4-14.9,41.3-9.9,9.8-23.4,14.8-40.1,14.8ZM888.3,114.1c-9.5,0-17.1,2.7-22.6,8.1-5.5,5.4-8.3,13.4-8.3,23.8v36.7c0,10.5,2.8,18.5,8.3,23.8,5.5,5.4,13.1,8.1,22.6,8.1s17.3-2.7,22.7-8.1c5.4-5.4,8.2-13.4,8.2-23.8v-36.7c0-10.5-2.8-18.5-8.2-23.8-5.4-5.4-13.1-8.1-22.7-8.1Z"/>
    <path fill="#fff" d="M801.7,234c-18,0-32.6-14.6-32.6-32.6V48.8h24.1v152.5c0,4.7,3.8,8.5,8.5,8.5h16.7v24.1h-16.7Z"/>
    <path fill="#fff" d="M1063.8,234.2V81.4c0-4.7-3.8-8.5-8.5-8.5h-16.7v-24.1h16.7c18,0,32.6,14.6,32.6,32.6v152.8h-24.1Z"/>
    <path fill="#fff" d="M1006.2,234.2c-18,0-32.6-14.6-32.6-32.6v-85h-20.3v-22.1h20.3v-45.2h24.1v45.2h30.2v22.1h-30.2v85c0,4.7,3.8,8.5,8.5,8.5h21.7v24.1h-21.7Z"/>
    <path fill="#fff" d="M160.2,110.8c-11.4,0-20.6,9.2-20.6,20.6v20.6h20.6v-10.3c0-5.7,4.6-10.3,10.3-10.3s10.3,4.6,10.3,10.3v-10.3c0-11.4-9.2-20.6-20.6-20.6ZM222,110.8c-11.4,0-20.6,9.2-20.6,20.6v20.6h20.6v-10.3c0-5.7,4.6-10.3,10.3-10.3s10.3,4.6,10.3,10.3v-10.3c0-11.4-9.2-20.6-20.6-20.6ZM222,110.8c-11.4,0-20.6,9.2-20.6,20.6v20.6h20.6v-10.3c0-5.7,4.6-10.3,10.3-10.3s10.3,4.6,10.3,10.3v-10.3c0-11.4-9.2-20.6-20.6-20.6ZM160.2,110.8c-11.4,0-20.6,9.2-20.6,20.6v20.6h20.6v-10.3c0-5.7,4.6-10.3,10.3-10.3s10.3,4.6,10.3,10.3v-10.3c0-11.4-9.2-20.6-20.6-20.6ZM160.2,110.8c-11.4,0-20.6,9.2-20.6,20.6v20.6h20.6v-10.3c0-5.7,4.6-10.3,10.3-10.3s10.3,4.6,10.3,10.3v-10.3c0-11.4-9.2-20.6-20.6-20.6ZM222,110.8c-11.4,0-20.6,9.2-20.6,20.6v20.6h20.6v-10.3c0-5.7,4.6-10.3,10.3-10.3s10.3,4.6,10.3,10.3v-10.3c0-11.4-9.2-20.6-20.6-20.6ZM222,110.8c-11.4,0-20.6,9.2-20.6,20.6v20.6h20.6v-10.3c0-5.7,4.6-10.3,10.3-10.3s10.3,4.6,10.3,10.3v-10.3c0-11.4-9.2-20.6-20.6-20.6ZM160.2,110.8c-11.4,0-20.6,9.2-20.6,20.6v20.6h20.6v-10.3c0-5.7,4.6-10.3,10.3-10.3s10.3,4.6,10.3,10.3v-10.3c0-11.4-9.2-20.6-20.6-20.6ZM160.2,110.8c-11.4,0-20.6,9.2-20.6,20.6v20.6h20.6v-10.3c0-5.7,4.6-10.3,10.3-10.3s10.3,4.6,10.3,10.3v-10.3c0-11.4-9.2-20.6-20.6-20.6ZM222,110.8c-11.4,0-20.6,9.2-20.6,20.6v20.6h20.6v-10.3c0-5.7,4.6-10.3,10.3-10.3s10.3,4.6,10.3,10.3v-10.3c0-11.4-9.2-20.6-20.6-20.6ZM222,110.8c-11.4,0-20.6,9.2-20.6,20.6v20.6h20.6v-10.3c0-5.7,4.6-10.3,10.3-10.3s10.3,4.6,10.3,10.3v-10.3c0-11.4-9.2-20.6-20.6-20.6ZM160.2,110.8c-11.4,0-20.6,9.2-20.6,20.6v20.6h20.6v-10.3c0-5.7,4.6-10.3,10.3-10.3s10.3,4.6,10.3,10.3v-10.3c0-11.4-9.2-20.6-20.6-20.6ZM277.3,57.4c0-23.8-19.3-43.1-43.1-43.1h-12.2c-3.9,0-7.6,1.6-10.2,4.4-5.9-2.9-12.3-4.4-18.9-4.4h-12.2c-7.7,0-14.1,6.3-14.1,14.1v20.6c0,2.4.6,4.6,1.6,6.6h-37c1-2,1.6-4.2,1.6-6.6v-20.6c0-7.7-6.3-14.1-14.1-14.1h-12.2c-6.5,0-13,1.5-18.9,4.4-2.6-2.8-6.3-4.4-10.2-4.4h-12.2c-23.8,0-43.1,19.3-43.1,43.1v32.8c0,4.1,1.7,7.7,4.5,10.3-2.8,2.6-4.5,6.2-4.5,10.3v41.2c0,11,5.2,20.8,13.2,27.2-7.3.4-13.2,6.6-13.2,14v20.6c0,4.1,1.7,7.7,4.5,10.3-2.8,2.6-4.5,6.2-4.5,10.3v20.6c0,7.7,6.3,14.1,14.1,14.1h41.2c4.1,0,7.7-1.7,10.3-4.5,2.6,2.8,6.2,4.5,10.3,4.5h164.9c7.7,0,14.1-6.3,14.1-14.1v-20.6c0-4.1-1.7-7.7-4.5-10.3,2.8-2.6,4.5-6.2,4.5-10.3v-20.6c0-7.5-5.8-13.6-13.2-14,8-6.4,13.2-16.2,13.2-27.2v-41.2c0-4.1-1.7-7.7-4.5-10.3,2.8-2.6,4.5-6.2,4.5-10.3v-32.8ZM77.8,255.1h-41.2v-20.6h41.2v20.6ZM36.5,213.9v-20.6h164.9v20.6H36.5ZM263.3,255.1H98.4v-20.6h164.9v20.6ZM263.3,213.9h-41.2v-20.6h41.2v20.6ZM263.3,90.2h-20.6v20.6h20.6v41.2c0,11.4-9.2,20.6-20.6,20.6H57.2c-11.4,0-20.6-9.2-20.6-20.6v-41.2h20.6v-20.6h-20.6v-32.8c0-16,13-29,29-29h12.2v20.6h-12.2c-4.7,0-8.4,3.8-8.4,8.4v32.8h41.2v-20.6h-20.6v-12.2c0-16,13-29,29-29h12.2v20.6h-12.2c-4.7,0-8.4,3.8-8.4,8.4v12.2h103.1v-12.2c0-4.7-3.8-8.4-8.4-8.4h-12.2v-20.6h12.2c16,0,29,13,29,29v12.2h-20.6v20.6h41.2v-32.8c0-4.7-3.8-8.4-8.4-8.4h-12.2v-20.6h12.2c16,0,29,13,29,29v32.8ZM201.4,152h20.6v-10.3c0-5.7,4.6-10.3,10.3-10.3s10.3,4.6,10.3,10.3v-10.3c0-11.4-9.2-20.6-20.6-20.6s-20.6,9.2-20.6,20.6v20.6ZM160.2,110.8c-11.4,0-20.6,9.2-20.6,20.6v20.6h20.6v-10.3c0-5.7,4.6-10.3,10.3-10.3s10.3,4.6,10.3,10.3v-10.3c0-11.4-9.2-20.6-20.6-20.6ZM160.2,110.8c-11.4,0-20.6,9.2-20.6,20.6v20.6h20.6v-10.3c0-5.7,4.6-10.3,10.3-10.3s10.3,4.6,10.3,10.3v-10.3c0-11.4-9.2-20.6-20.6-20.6ZM222,110.8c-11.4,0-20.6,9.2-20.6,20.6v20.6h20.6v-10.3c0-5.7,4.6-10.3,10.3-10.3s10.3,4.6,10.3,10.3v-10.3c0-11.4-9.2-20.6-20.6-20.6ZM222,110.8c-11.4,0-20.6,9.2-20.6,20.6v20.6h20.6v-10.3c0-5.7,4.6-10.3,10.3-10.3s10.3,4.6,10.3,10.3v-10.3c0-11.4-9.2-20.6-20.6-20.6ZM160.2,110.8c-11.4,0-20.6,9.2-20.6,20.6v20.6h20.6v-10.3c0-5.7,4.6-10.3,10.3-10.3s10.3,4.6,10.3,10.3v-10.3c0-11.4-9.2-20.6-20.6-20.6ZM160.2,110.8c-11.4,0-20.6,9.2-20.6,20.6v20.6h20.6v-10.3c0-5.7,4.6-10.3,10.3-10.3s10.3,4.6,10.3,10.3v-10.3c0-11.4-9.2-20.6-20.6-20.6ZM222,110.8c-11.4,0-20.6,9.2-20.6,20.6v20.6h20.6v-10.3c0-5.7,4.6-10.3,10.3-10.3s10.3,4.6,10.3,10.3v-10.3c0-11.4-9.2-20.6-20.6-20.6ZM222,110.8c-11.4,0-20.6,9.2-20.6,20.6v20.6h20.6v-10.3c0-5.7,4.6-10.3,10.3-10.3s10.3,4.6,10.3,10.3v-10.3c0-11.4-9.2-20.6-20.6-20.6ZM160.2,110.8c-11.4,0-20.6,9.2-20.6,20.6v20.6h20.6v-10.3c0-5.7,4.6-10.3,10.3-10.3s10.3,4.6,10.3,10.3v-10.3c0-11.4-9.2-20.6-20.6-20.6ZM160.2,110.8c-11.4,0-20.6,9.2-20.6,20.6v20.6h20.6v-10.3c0-5.7,4.6-10.3,10.3-10.3s10.3,4.6,10.3,10.3v-10.3c0-11.4-9.2-20.6-20.6-20.6ZM222,110.8c-11.4,0-20.6,9.2-20.6,20.6v20.6h20.6v-10.3c0-5.7,4.6-10.3,10.3-10.3s10.3,4.6,10.3,10.3v-10.3c0-11.4-9.2-20.6-20.6-20.6ZM222,110.8c-11.4,0-20.6,9.2-20.6,20.6v20.6h20.6v-10.3c0-5.7,4.6-10.3,10.3-10.3s10.3,4.6,10.3,10.3v-10.3c0-11.4-9.2-20.6-20.6-20.6ZM160.2,110.8c-11.4,0-20.6,9.2-20.6,20.6v20.6h20.6v-10.3c0-5.7,4.6-10.3,10.3-10.3s10.3,4.6,10.3,10.3v-10.3c0-11.4-9.2-20.6-20.6-20.6Z"/>
</svg>
