<?xml version="1.0" encoding="UTF-8"?>
<svg xmlns="http://www.w3.org/2000/svg" version="1.1" viewBox="0 0 283.5 283.5">
  <defs>
    <style>
      .cls-1 {
        fill: #141310;
      }
    </style>
  </defs>
  <!-- Generator: Adobe Illustrator 28.7.1, SVG Export Plug-In . SVG Version: 1.2.0 Build 142)  -->
  <g>
    <g id="Layer_1">
      <g>
        <path class="cls-1" d="M46.9,37.4h13.7V14.2h-13.7c-18,0-32.7,14.6-32.7,32.7v36.9h23.2v-36.9c0-5.2,4.2-9.5,9.5-9.5Z"/>
        <path class="cls-1" d="M93.2,37.4h13.7V14.2h-13.7c-18,0-32.7,14.6-32.7,32.7v13.7h23.2v-13.7c0-5.2,4.2-9.5,9.5-9.5Z"/>
        <path class="cls-1" d="M269.3,46.9c0-18-14.6-32.7-32.7-32.7h-13.7v23.2h13.7c5.2,0,9.5,4.2,9.5,9.5v36.9h23.2v-36.9Z"/>
        <path class="cls-1" d="M199.7,83.8v-23.2h-116v23.2h-46.4v23.2H14.2v46.4c0,12.8,10.4,23.2,23.2,23.2h208.7c12.8,0,23.2-10.4,23.2-23.2v-46.4h-23.2v-23.2h-46.4ZM176.5,141.7c0-6.4-5.2-11.6-11.6-11.6s-11.6,5.2-11.6,11.6v11.6h-23.2v-23.2c0-12.8,10.4-23.2,23.2-23.2s23.2,10.4,23.2,23.2v11.6ZM246.1,141.7c0-6.4-5.2-11.6-11.6-11.6s-11.6,5.2-11.6,11.6v11.6h-23.2v-23.2c0-12.8,10.4-23.2,23.2-23.2s23.2,10.4,23.2,23.2v11.6Z"/>
        <path class="cls-1" d="M222.9,46.9c0-18-14.6-32.7-32.7-32.7h-13.7v23.2h13.7c5.2,0,9.5,4.2,9.5,9.5v13.7h23.2v-13.7Z"/>
        <rect class="cls-1" x="14.2" y="246.1" width="46.4" height="23.2"/>
        <rect class="cls-1" x="83.8" y="246.1" width="185.5" height="23.2"/>
        <rect class="cls-1" x="222.9" y="199.7" width="46.4" height="23.2"/>
        <rect class="cls-1" x="14.2" y="199.7" width="185.5" height="23.2"/>
      </g>
    </g>
  </g>
</svg>
