<?xml version="1.0" encoding="UTF-8"?>
<svg xmlns="http://www.w3.org/2000/svg" version="1.1" viewBox="0 0 765.4 212.6">
  <defs>
    <style>
      .cls-1 {
        fill: #fff;
      }
    </style>
  </defs>
  <!-- Generator: Adobe Illustrator 28.7.1, SVG Export Plug-In . SVG Version: 1.2.0 Build 142)  -->
  <g>
    <g id="Layer_1">
      <g>
        <path class="cls-1" d="M121.6,198.1l-12.1-48.8h-54.4l-12.1,48.8h-24.7L66.6,12.9h31.6l47.9,185.1h-24.5ZM104.4,128.6l-13.8-55.6c-2.7-10.7-4.8-19.7-6.3-26.9-.9-4.2-1.5-7.5-2-9.9-.5,2.5-1.2,5.8-2,9.9-1.5,7.1-3.6,16.1-6.3,26.7l-13.8,55.9h44.3Z"/>
        <path class="cls-1" d="M254.9,198.1l-29.9-45.6c-1.2-1.9-2.4-4.1-3.5-6.5-.8-1.7-1.5-3.3-2.1-4.5-.6,1.3-1.4,2.8-2.3,4.5-1.3,2.4-2.6,4.6-4,6.5l-29.9,45.6h-28.5l49.6-71.9-46.5-67.9h28.5l27.6,43.1c1.2,1.9,2.3,3.9,3.4,6.1.7,1.4,1.4,2.7,1.9,3.8.5-1.1,1.1-2.4,1.8-3.8,1.1-2.2,2.2-4.2,3.4-6.1l27.6-43.1h28.5l-46.5,68.2,49.3,71.7h-28.5Z"/>
        <path class="cls-1" d="M345.2,200.1c-16.7,0-30.2-5-40.1-14.8-9.9-9.8-14.9-23.7-14.9-41.3v-31.7c0-17.7,5-31.7,14.8-41.4,9.8-9.7,23.4-14.7,40.3-14.7s30.4,4.9,40.3,14.7c9.8,9.7,14.8,23.7,14.8,41.4v31.7c0,17.6-5,31.5-14.9,41.3-9.9,9.8-23.4,14.8-40.1,14.8ZM345.2,77.8c-9.5,0-17.1,2.7-22.6,8.1-5.5,5.4-8.3,13.4-8.3,23.8v36.7c0,10.5,2.8,18.5,8.3,23.8,5.5,5.4,13.1,8.1,22.6,8.1s17.3-2.7,22.7-8.1c5.4-5.4,8.2-13.4,8.2-23.9v-36.7c0-10.5-2.8-18.5-8.2-23.9-5.4-5.4-13.1-8.1-22.7-8.1Z"/>
        <path class="cls-1" d="M547.3,200.1c-16.7,0-30.2-5-40.1-14.8-9.9-9.8-14.9-23.7-14.9-41.3v-31.7c0-17.7,5-31.7,14.8-41.4,9.8-9.7,23.4-14.7,40.3-14.7s30.4,4.9,40.3,14.7c9.8,9.7,14.8,23.7,14.8,41.4v31.7c0,17.6-5,31.5-14.9,41.3-9.9,9.8-23.4,14.8-40.1,14.8ZM547.3,77.8c-9.5,0-17.1,2.7-22.6,8.1-5.5,5.4-8.3,13.4-8.3,23.8v36.7c0,10.5,2.8,18.5,8.3,23.8,5.5,5.4,13.1,8.1,22.6,8.1s17.3-2.7,22.7-8.1c5.4-5.4,8.2-13.4,8.2-23.9v-36.7c0-10.5-2.8-18.5-8.2-23.9-5.4-5.4-13.1-8.1-22.7-8.1Z"/>
        <path class="cls-1" d="M460.6,197.8c-18,0-32.6-14.6-32.6-32.6V12.5h24.1v152.6c0,4.7,3.8,8.5,8.5,8.5h16.8v24.1h-16.8Z"/>
        <path class="cls-1" d="M722.8,198.1V45.2c0-4.7-3.8-8.5-8.5-8.5h-16.8V12.5h16.8c18,0,32.6,14.6,32.6,32.6v152.9h-24.1Z"/>
        <path class="cls-1" d="M665.2,198.1c-18,0-32.6-14.6-32.6-32.6v-85.1h-20.3v-22.1h20.3V12.9h24.1v45.3h30.2v22.1h-30.2v85.1c0,4.7,3.8,8.5,8.5,8.5h21.7v24.1h-21.7Z"/>
      </g>
    </g>
  </g>
</svg>
